# xmcd
#
# Track frame offsets:
#	150
#	18257
#	38400
#	59917
#	80352
#	97187
#	109977
#	126487
#	139772
#	157820
#	177970
#	199485
#	219902
#	236745
#	249532
#	266040
#
# Disc length: 3724 seconds
#
# Revision: 1
# Processed by: cddbd v1.5.1PL2 Copyright (c) Steve Scherf et al.
# Submitted via: audiograbber 1.83.01
#
DISCID=e90e8a10
DTITLE=Sound Choice - SC3239
DYEAR=1900
DGENRE=Karaoke Country
TTITLE0=Allison Moorer - Think It Over (Radio Version)
TTITLE1=Rascal Flatts - Long Slow Beautiful Dance
TTITLE2=Travis Tritt - It'S A Great Day To Be Alive
TTITLE3=Chris Cagle - Laredo
TTITLE4=Hank Williams Jr - I Don'T Know
TTITLE5=Billy Hoffman - You'Re The Ticket
TTITLE6=Daryle Singletary - I'Ve Thought Of Everything
TTITLE7=Billy Yates - What Do You Want From Me Now
TTITLE8=Allison Moorer - Think It Over (Radio Version)
TTITLE9=Rascal Flatts - Long Slow Beautiful Dance
TTITLE10=Travis Tritt - It'S A Great Day To Be Alive
TTITLE11=Chris Cagle - Laredo
TTITLE12=Hank Williams Jr - I Don'T Know
TTITLE13=Billy Hoffman - You'Re The Ticket
TTITLE14=Daryle Singletary - I'Ve Thought Of Everything
TTITLE15=Billy Yates - What Do You Want From Me Now
EXTD=Tracks 9-16 Demos
EXTT0=
EXTT1=
EXTT2=
EXTT3=
EXTT4=
EXTT5=
EXTT6=
EXTT7=
EXTT8=
EXTT9=
EXTT10=
EXTT11=
EXTT12=
EXTT13=
EXTT14=
EXTT15=
PLAYORDER=
